<?xml version="1.0" encoding="UTF-8" standalone="no"?>
<!-- Created with Inkscape (http://www.inkscape.org/) -->

<svg
   width="287.86667mm"
   height="287.86667mm"
   viewBox="0 0 287.86667 287.86667"
   version="1.1"
   id="svg5"
   xml:space="preserve"
   inkscape:version="1.2.1 (9c6d41e4, 2022-07-14)"
   sodipodi:docname="grand_duc_shadow_circle.svg"
   inkscape:export-filename="../Documents/code/personal/xamcost.github.io/app/grand_duc_circle.png"
   inkscape:export-xdpi="45.176472"
   inkscape:export-ydpi="45.176472"
   xmlns:inkscape="http://www.inkscape.org/namespaces/inkscape"
   xmlns:sodipodi="http://sodipodi.sourceforge.net/DTD/sodipodi-0.dtd"
   xmlns="http://www.w3.org/2000/svg"
   xmlns:svg="http://www.w3.org/2000/svg"><sodipodi:namedview
     id="namedview7"
     pagecolor="#ffffff"
     bordercolor="#000000"
     borderopacity="0.25"
     inkscape:showpageshadow="2"
     inkscape:pageopacity="0.0"
     inkscape:pagecheckerboard="0"
     inkscape:deskcolor="#d1d1d1"
     inkscape:document-units="mm"
     showgrid="false"
     inkscape:zoom="0.70555556"
     inkscape:cx="321.73228"
     inkscape:cy="515.90551"
     inkscape:window-width="1920"
     inkscape:window-height="942"
     inkscape:window-x="0"
     inkscape:window-y="25"
     inkscape:window-maximized="0"
     inkscape:current-layer="layer1" /><defs
     id="defs2" /><g
     inkscape:label="Layer 1"
     inkscape:groupmode="layer"
     id="layer1"
     transform="translate(21.683334,12.683334)"><circle
       style="fill:none;stroke:#000000;stroke-width:0.392343;stroke-linejoin:round"
       id="path513"
       cx="121.51189"
       cy="131.26189"
       r="142.80383" /><path
       style="fill:#000000;stroke:#000000;stroke-width:1.92614;stroke-linejoin:round"
       d="m 497.53047,1080.5673 c -92.0502,-7.5741 -181.60147,-39.308 -258.71157,-91.67851 -28.35517,-19.25783 -49.92745,-37.29406 -77.38562,-64.70082 -28.83852,-28.78452 -48.40151,-52.52972 -68.877637,-83.6024 l -13.935156,-21.14671 2.796439,-2.97668 c 3.6829,-3.92025 9.712733,-17.49411 16.854357,-37.94112 9.366177,-26.81604 10.991247,-29.29276 28.266377,-43.07994 16.8431,-13.44235 49.08495,-35.50279 59.89208,-40.97917 3.83929,-1.94551 10.97896,-4.45657 15.86594,-5.58012 7.41289,-1.70428 9.77405,-3.03349 14.24752,-8.02056 5.942,-6.62421 13.6496,-21.88141 17.102,-33.8534 1.23637,-4.2874 4.22406,-22.46456 6.63929,-40.3937 9.54264,-70.83842 22.99343,-142.49959 29.49055,-157.11545 1.43679,-3.23216 5.79563,-10.02234 9.68636,-15.08927 13.99993,-18.23231 14.02265,-20.50278 0.36901,-36.88481 -41.61504,-49.93098 -73.65625,-132.08875 -94.36306,-241.95898 l -2.46811,-13.09576 6.17014,-5.32944 c 13.03251,-11.25679 33.41325,-27.23941 34.76763,-27.26484 1.80701,-0.0339 14.50548,24.79465 36.58966,71.5417 30.04498,63.59822 54.71357,105.48268 71.59261,121.55611 8.85578,8.43312 23.66322,16.62977 30.04567,16.63175 4.19237,10e-4 9.88229,-3.60299 9.88229,-6.25996 0,-1.74223 13.24613,-8.4258 30.04733,-15.16092 24.06228,-9.64587 67.33024,-22.23163 93.96842,-27.33347 50.92676,-9.75366 111.49491,-5.99079 190.57289,11.83958 22.45537,5.0632 28.16296,7.63708 42.25141,19.05353 19.85548,16.08967 20.41322,16.44504 25.81131,16.44504 11.55189,0 16.75704,-4.38589 75.3176,-63.46294 53.05754,-53.52549 77.23091,-78.96094 84.8557,-89.28594 l 3.42553,-4.63863 11.15153,11.01659 c 6.13334,6.05912 12.36643,12.68963 13.8513,14.73447 l 2.69976,3.71788 -9.80405,35.96716 c -12.82833,47.06204 -20.64546,72.30098 -25.14139,81.17328 -4.86225,9.59519 -20.38871,32.57662 -32.65703,48.33718 -24.8776,31.95913 -44.45643,50.48866 -64.71646,61.24806 -16.51048,8.76814 -23.52361,13.93811 -23.52361,17.34123 0,1.50961 1.32761,4.99486 2.95023,7.745 2.72044,4.6108 2.8271,5.80386 1.36947,15.31724 -3.19867,20.87644 -20.34462,84.50447 -32.76151,121.57682 -3.26366,9.74409 -11.66519,29.83464 -18.67007,44.64567 -18.33921,38.77614 -18.56111,39.39923 -18.42319,51.73228 0.23938,21.40505 10.65452,60.09404 21.6919,80.5786 3.08828,5.73163 10.62197,16.89304 16.74153,24.80315 29.75235,38.45771 37.5111,60.48118 32.79303,93.08418 -2.69686,18.63603 -9.94336,123.42467 -9.94336,143.78684 v 5.981 l -13.8189,6.4868 c -59.79546,28.0688 -123.85173,45.1781 -189.2898,50.5588 -20.62467,1.6959 -64.26113,1.6619 -85.26634,-0.066 z"
       id="path1149"
       transform="matrix(0.26458333,0,0,0.26458333,-21.683334,-12.683334)" /><path
       style="fill:#ffffff;stroke:none;stroke-width:1.92614;stroke-linejoin:round"
       d="M 71.650596,806.90265 C 36.006953,743.09124 13.349059,671.15103 5.7747973,597.74297 3.2035931,572.82343 2.8190354,521.21187 5.0224602,496.77165 16.414809,370.40859 71.773736,252.62921 162.18618,162.3966 l 19.05863,-19.02072 5.94226,28.94198 c 21.28832,103.68543 49.10036,172.2653 92.6693,228.50716 4.71286,6.08367 8.56883,12.50735 8.56883,14.27484 0,1.76748 -3.55122,8.27025 -7.8916,14.45057 -4.34038,6.18033 -9.35982,14.10705 -11.15429,17.61492 -7.20229,14.07912 -16.74553,63.69785 -32.00027,166.38101 -2.41934,16.28515 -5.38338,32.54893 -6.58673,36.14173 -3.55879,10.62528 -13.25969,28.27115 -17.50694,31.84496 -2.16975,1.82574 -9.27391,4.98098 -15.78702,7.01167 -12.99972,4.05311 -34.32268,17.12389 -62.86716,38.53703 -25.38334,19.04175 -27.83707,22.39512 -38.894226,53.15447 -6.787197,18.88097 -13.121857,32.78021 -16.02909,35.17037 -1.98745,1.63396 -2.97908,0.58737 -8.057278,-8.50394 z"
       id="path1224"
       transform="matrix(0.26458333,0,0,0.26458333,-21.683334,-12.683334)" /><path
       style="fill:#ffffff;stroke:none;stroke-width:1.92614;stroke-linejoin:round"
       d="M 351.36811,313.98473 C 334.65163,305.59406 321.63298,290.7109 302.35562,257.95276 291.61711,239.70474 281.346,219.72633 249.89207,155.90551 237.21386,130.1811 226.65159,108.7724 226.42036,108.33062 225.80537,107.15565 262.62816,83.268183 279.77325,73.719838 345.39676,37.173166 421.00877,14.132462 496.33478,7.728602 522.61668,5.4942395 585.00126,6.6718882 608.0315,9.8371276 716.62246,24.761704 813.17718,67.84746 892.91339,136.96039 c 7.79527,6.75671 16.34028,14.54886 18.98892,17.31587 4.80644,5.02126 4.8108,5.03842 2.26913,8.91751 -4.57856,6.98777 -30.36537,34.30288 -77.24231,81.8202 -63.48492,64.35219 -74.4937,73.64459 -84.32421,71.17729 -1.86246,-0.46743 -9.64158,-5.75332 -17.28695,-11.74639 -7.64535,-5.99306 -16.4767,-12.34742 -19.6252,-14.12077 -10.68901,-6.02042 -55.35228,-16.04353 -97.23771,-21.82157 -27.65098,-3.81443 -76.71052,-5.24257 -97.60312,-2.84127 -52.95148,6.08599 -137.31018,32.93633 -151.62497,48.26036 -4.96932,5.31968 -7.36946,5.32817 -17.85886,0.0631 z"
       id="path1226"
       transform="matrix(0.26458333,0,0,0.26458333,-21.683334,-12.683334)" /><path
       style="fill:#ffffff;stroke:none;stroke-width:1.92614;stroke-linejoin:round"
       d="m 787.90734,1005.4428 c 2.20845,-39.86074 5.23679,-82.90765 7.56742,-107.56878 3.25447,-34.43664 3.18038,-54.96697 -0.23531,-65.19685 -4.57139,-13.6912 -14.6212,-31.37327 -28.54858,-50.22961 -16.65112,-22.54401 -21.69854,-31.51246 -27.96638,-49.69165 -8.12624,-23.56932 -11.37728,-39.37576 -11.51472,-55.98426 l -0.12316,-14.88189 12.55899,-26.92913 c 16.0999,-34.52159 23.13289,-52.53163 32.12853,-82.27456 9.01718,-29.81415 21.82412,-79.95797 24.09081,-94.32421 1.57698,-9.99491 1.4822,-11.26343 -1.31387,-17.58439 -3.77168,-8.52652 -3.50502,-8.87325 14.782,-19.22152 18.79847,-10.63768 29.25517,-18.82297 44.9931,-35.21965 16.74056,-17.44128 30.23346,-34.67352 46.64149,-59.56743 11.5507,-17.52446 13.11597,-20.77462 19.45354,-40.3937 3.79067,-11.73469 11.22015,-37.28068 16.50995,-56.76887 5.28981,-19.48819 10.03431,-35.92701 10.54334,-36.53071 0.50903,-0.60371 6.70416,6.09314 13.76694,14.88189 131.70297,163.88774 155.24317,390.8837 60.00837,578.65669 -27.02154,53.27799 -57.0042,94.56368 -99.92898,137.60079 -38.03344,38.13297 -76.46341,67.03692 -123.20817,92.66734 l -11.1787,6.1293 z"
       id="path1228"
       transform="matrix(0.26458333,0,0,0.26458333,-21.683334,-12.683334)" /></g></svg>
